<svg width="23" height="23" viewBox="0 0 23 23" fill="none" xmlns="http://www.w3.org/2000/svg">
<g clip-path="url(#clip0_2336_9863)">
<path d="M13.8591 0.374083C12.3505 -0.106094 10.7332 -0.126861 9.21273 0.314421C7.6923 0.755704 6.33742 1.63911 5.32031 2.85233L9.10094 6.03017L13.8591 0.374083Z" fill="#1A73E8"/>
<path d="M5.3201 2.85352C4.11185 4.29062 3.4509 6.10881 3.45423 7.98635C3.43358 9.29912 3.70323 10.6002 4.24389 11.7967L9.10073 6.03135L5.3201 2.85352Z" fill="#EA4335"/>
<path d="M11.4409 4.9363C11.8422 4.93504 12.2399 5.01301 12.6111 5.16574C12.9823 5.31847 13.3197 5.54296 13.604 5.82634C13.8883 6.10972 14.1138 6.44642 14.2677 6.81713C14.4216 7.18785 14.5008 7.58529 14.5008 7.98668C14.5021 8.71103 14.2429 9.41171 13.7706 9.96084L18.5277 4.30476C17.5548 2.42278 15.876 1.00278 13.8587 0.355469L9.10156 6.03168C9.3866 5.68791 9.74414 5.41144 10.1486 5.22207C10.553 5.0327 10.9943 4.93511 11.4409 4.9363Z" fill="#4285F4"/>
<path d="M11.4383 11.0458C10.6268 11.0458 9.84845 10.7235 9.2746 10.1496C8.70074 9.57575 8.37835 8.79744 8.37835 7.98589C8.37522 7.2629 8.63084 6.56265 9.09902 6.01172L4.24219 11.7953C5.25208 13.6528 6.46718 15.3913 7.86469 16.9779L13.7872 9.96005C13.5002 10.3033 13.1407 10.5787 12.7346 10.7665C12.3284 10.9542 11.8857 11.0496 11.4383 11.0458Z" fill="#FBBC04"/>
<path d="M13.6613 18.8934C16.3254 14.7284 19.4256 12.8328 19.4256 8.03543C19.4255 6.75381 19.1172 5.491 18.5267 4.35352L7.86719 16.9786C8.32144 17.5708 8.77569 18.2024 9.22035 18.8934C10.8486 21.4004 10.3943 22.9011 11.4408 22.9011C12.4873 22.9011 12.0331 21.4004 13.6613 18.8934Z" fill="#34A853"/>
</g>
<defs>
<clipPath id="clip0_2336_9863">
<rect width="23" height="23" fill="white"/>
</clipPath>
</defs>
</svg>
