<svg width="400" height="263" viewBox="0 0 400 263" fill="none" xmlns="http://www.w3.org/2000/svg">
<path d="M5.78613 128.631C17.2579 97.053 49.0338 67.312 62.3212 57.497C89.2769 37.5854 152.832 0.648019 246.848 0.00983423C340.866 -0.62835 374.707 29.9043 389.58 59.5098C396.441 73.174 406.131 105.058 394.775 139.98C384.885 170.388 346.514 197.813 346.514 197.813L331.97 263H325.305L319.645 216.977C319.645 216.977 284.2 202.061 228.091 226.363C163.283 254.433 73.4467 250.02 37.8955 230.344C3.94487 211.555 1.77011 182.702 0.345259 171.695C-1.08255 160.691 2.15 138.643 5.78613 128.632V128.631Z" fill="white" fill-opacity="0.02"/>
<path d="M211.057 217.671C219.841 211.314 229.4 206.185 239.311 201.775C249.276 197.506 259.708 194.018 270.843 192.656L272.925 192.393L275.048 192.283C276.456 192.23 277.903 192.102 279.284 192.118C282.025 192.174 284.767 192.228 287.502 192.432C292.969 192.846 298.425 193.529 303.81 194.676C309.194 195.817 314.521 197.317 319.72 199.379C322.324 200.449 324.891 201.574 327.413 203.073C328.044 203.416 328.676 203.8 329.303 204.24C329.933 204.664 330.546 205.056 331.174 205.605C331.794 206.115 332.408 206.598 333.044 207.336C333.362 207.721 333.643 207.917 333.972 208.463C334.292 208.966 334.587 209.487 334.852 210.01L334.863 210.038C335.117 210.539 335.189 211.085 335.108 211.603L333.795 219.937C333.37 222.714 332.902 225.488 332.386 228.256C331.414 233.802 330.328 239.336 329.053 244.852C328.752 239.193 328.637 233.549 328.637 227.915C328.608 225.095 328.624 222.279 328.687 219.469L328.831 211.031L329.088 212.625C328.986 212.577 328.919 212.531 328.876 212.462C328.878 212.408 328.574 212.221 328.45 212.102C328.178 211.833 327.695 211.538 327.239 211.25C326.823 210.948 326.262 210.693 325.752 210.415C325.255 210.13 324.715 209.868 324.144 209.627C321.951 208.596 319.525 207.807 317.138 207.007C312.279 205.525 307.261 204.394 302.201 203.505C297.134 202.641 292.015 202.038 286.879 201.682C284.314 201.459 281.741 201.384 279.166 201.3C277.888 201.278 276.679 201.335 275.43 201.346L273.57 201.374L271.689 201.554C261.636 202.36 251.449 204.857 241.357 207.74C231.229 210.616 221.193 214.089 211.057 217.673V217.671ZM111.98 49.2479C118.54 43.1131 126.261 38.3797 134.118 34.0793C142.057 29.9097 150.289 26.2675 158.747 23.2855C167.207 20.3217 175.813 17.7374 184.554 15.7618C193.288 13.771 202.115 12.1912 210.982 10.9712C228.694 8.68266 246.752 7.74684 264.775 9.11002C282.779 10.4074 300.79 13.8187 318.009 20.1137C322.322 21.6457 326.557 23.442 330.747 25.3441C334.896 27.3512 339.026 29.4222 343.001 31.8204C346.998 34.1662 350.899 36.7227 354.619 39.5654C358.366 42.3605 361.943 45.435 365.318 48.7461C372.101 55.3264 377.996 63.0953 382.222 71.9411C386.255 80.724 388.786 90.0335 389.811 99.5624C390.879 109.07 390.206 118.718 388.062 127.92C385.942 137.127 382.362 145.936 377.42 153.8C374.974 157.745 372.21 161.464 369.164 164.901C366.131 168.364 362.761 171.448 359.388 174.382C352.617 180.264 345.596 185.751 338.436 191.05C344.859 184.844 351.24 178.595 357.352 172.157C363.512 165.752 368.77 158.79 372.644 150.966C376.5 143.186 379.282 134.893 380.592 126.378C381.257 122.125 381.586 117.835 381.571 113.56C381.585 109.284 381.272 105.021 380.597 100.824C379.268 92.4499 376.556 84.2584 372.691 76.894C368.904 69.6383 363.532 63.1449 357.387 57.488C345.032 46.1562 329.808 37.9895 313.828 32.2859C305.816 29.4346 297.579 27.1728 289.216 25.41C280.844 23.6938 272.352 22.4823 263.802 21.6925C246.69 20.1356 229.396 20.5143 212.076 21.8499C203.424 22.4709 194.794 23.442 186.224 24.8166C177.665 26.2151 169.104 27.7719 160.679 29.9555C156.469 31.0525 152.267 32.2029 148.092 33.4669C143.928 34.7614 139.798 36.1904 135.715 37.7596C131.614 39.2926 127.566 40.9897 123.6 42.888C119.624 44.7711 115.698 46.803 111.98 49.247V49.2479ZM37.2862 130.685C35.6216 134.313 34.175 138.018 32.9554 141.788C31.6934 145.54 30.6455 149.35 29.8492 153.189C28.2447 160.844 27.5214 168.667 28.5052 176.129C29.3755 183.584 32.0289 190.587 36.4159 196.189C38.6104 198.983 41.098 201.538 43.9329 203.716C46.826 205.9 49.9677 208.063 53.1638 209.846C59.5657 213.507 66.3851 216.179 73.4126 217.752C80.4441 219.314 87.6917 219.724 94.9176 219.102C109.414 217.956 123.662 212.828 137.467 206.485C151.216 200.001 165.098 192.222 179.663 185.825C194.181 179.339 209.511 173.907 225.601 171.61C229.616 171.044 233.663 170.626 237.736 170.517C241.774 170.457 245.793 170.464 249.778 170.782C257.755 171.313 265.651 172.294 273.399 173.918C281.146 175.548 288.802 177.45 296.3 179.875C303.798 182.263 311.197 184.967 318.341 188.246C303.189 184.335 287.875 181.468 272.541 179.946C264.877 179.184 257.213 178.777 249.611 178.959C245.807 178.961 242.032 179.351 238.289 179.594C234.578 179.935 230.884 180.56 227.218 181.321C212.536 184.451 198.395 190.272 184.544 196.915C177.625 200.272 170.749 203.835 163.847 207.487C156.947 211.151 149.99 214.824 142.69 218.287C135.375 221.686 127.878 224.674 120.032 227.059C112.197 229.407 104.03 231.01 95.705 231.484C87.3907 231.893 78.9058 231.225 70.7869 228.987C62.6631 226.809 54.9212 223.277 48.0071 218.63C44.4933 216.342 41.2914 213.828 38.0795 211.05C34.8707 208.188 31.9262 204.916 29.5719 201.218C24.7892 193.839 22.423 185.073 22.2059 176.603C22.0806 168.091 23.7304 159.862 26.4173 152.177C29.1397 144.501 32.7304 137.227 37.2862 130.685Z" fill="#DAAA42"/>
<path fill-rule="evenodd" clip-rule="evenodd" d="M70.6597 114.146C70.6597 114.146 60.2683 109.541 63.4012 97.5464C66.5341 85.5525 80.231 73.593 100.138 69.8812C120.05 66.1685 146.361 67.8808 153.323 66.8811C160.284 65.8833 163.224 64.9904 166.097 62.9022C168.968 60.8121 168.915 59.366 168.915 59.366C168.915 59.366 171.526 60.545 172.779 65.7392C174.033 70.9334 171.683 75.6983 167.662 78.2167C163.642 80.7323 156.595 81.9648 147.613 82.3387C138.634 82.7136 132.161 82.3931 132.161 82.3931C132.161 82.3931 118.378 112.498 112.807 133.169C107.239 153.841 107.309 162.909 108.423 169.334C109.537 175.76 112.53 180.471 118.587 179.544C119.142 182.971 112.286 186.683 107.275 186.613C102.261 186.54 93.0034 182.9 92.063 171.974C91.1246 161.053 91.6466 149.702 96.7974 130.995C101.949 112.29 108.213 96.1536 110.859 90.1562C113.505 84.1588 113.922 83.3012 113.922 83.3012C113.922 83.3012 100.835 83.8726 90.1833 91.3706C79.5344 98.8676 75.4967 106.221 73.7551 108.862C72.0145 111.503 70.6587 114.146 70.6587 114.146H70.6597ZM327.252 124.575C326.664 126.074 325.812 127.438 324.723 128.67C323.85 129.742 322.65 130.682 321.145 131.487C319.661 132.293 317.85 132.563 315.757 132.271L315.232 132.248H314.708L313.814 132.025L313.096 131.777L312.332 131.352L311.11 130.547L310.195 129.541C309.323 128.265 308.863 127.327 308.776 126.744C308.516 125.716 308.383 124.619 308.406 123.434C308.406 122.271 308.471 121.196 308.559 120.236C308.733 119.027 308.928 117.886 309.126 116.812C309.802 113.389 310.717 110.301 311.897 107.551C313.051 104.8 314.318 102.517 315.69 100.727C317.042 98.9391 318.417 97.6399 319.791 96.8567C321.188 96.0516 322.519 95.8732 323.85 96.2519C324.699 96.6115 325.266 97.3947 325.552 98.5804C325.834 99.7643 325.966 101.129 325.942 102.673C323.435 102.809 321.123 103.681 318.987 105.291C316.847 106.88 315.451 109.028 314.796 111.734C314.337 113.457 314.099 115.001 314.054 116.432C314.011 117.73 314.207 118.959 314.666 120.145C315.125 121.311 316.018 122.271 317.393 123.01C317.347 121.131 317.589 119.498 318.091 118.132C318.505 116.903 319.204 115.85 320.249 115.001C321.275 114.129 322.78 113.86 324.788 114.151C325.834 114.351 326.664 114.889 327.252 115.739C327.799 116.499 328.191 117.551 328.365 118.937C328.561 120.325 328.191 122.205 327.252 124.576V124.575ZM151.122 136.834L150.751 139.988L150.686 140.547L150.706 140.726C150.074 144.753 149.268 148.042 148.264 150.59C147.262 153.142 146.212 155.155 145.101 156.631C143.967 158.109 142.854 159.135 141.699 159.697C140.542 160.28 139.428 160.524 138.339 160.48C136.68 160.524 135.524 159.831 134.87 158.355C134.216 156.899 133.846 155.313 133.802 153.611C133.693 151.554 133.824 149.205 134.216 146.587C134.805 143.075 135.678 139.876 136.789 136.99C137.926 134.105 139.147 131.732 140.497 129.83C141.829 127.953 143.204 126.587 144.622 125.737C146.017 124.865 147.392 124.618 148.767 124.999C149.506 125.224 150.074 125.737 150.444 126.52C150.816 127.304 151.077 128.311 151.231 129.497C151.36 130.681 151.425 131.934 151.406 133.208C151.383 134.483 151.274 135.692 151.122 136.834ZM334.822 104.283C334.822 104.283 335.759 103.77 337.089 102.248C338.856 100.213 339.879 94.4852 335.868 89.0497C332.029 82.8977 320.926 84.0386 315.19 86.1869C309.453 88.3342 302.341 94.0168 297.237 104.709C292.112 115.425 292.898 123.142 292.898 123.142C292.898 123.142 291.98 124.642 289.474 128.198C286.964 131.777 284.674 130.28 284.804 126.702C284.934 123.142 288.208 114.934 288.907 104.084C289.604 93.2346 281.883 90.9299 274.989 91.1531C268.097 91.3763 262.318 99.2968 262.318 99.2968C262.318 99.2968 262.318 96.9235 265.393 88.8035C268.447 80.6598 276.605 59.097 276.605 59.097C276.605 59.097 273.114 56.6797 267.464 56.6797C261.815 56.6797 259.22 59.3202 259.22 59.3202C259.22 59.3202 252.218 74.5088 247.311 91.1082C242.403 107.707 239.853 121.754 239.853 121.754C239.853 121.754 237.91 124.844 234.268 131.331C230.601 137.818 227.591 143.319 225.542 143.051C223.514 142.783 224.083 138.352 226.065 131.107C228.052 123.88 230.08 115.648 226.327 110.011C222.578 104.396 215.008 104.396 211.082 105.649C207.178 106.879 201.66 112.74 201.66 112.74L203.36 106.655C203.36 106.655 201.79 106.051 196.097 106.387C190.404 106.7 188.898 107.55 187.286 108.198C185.648 108.848 185.148 111.42 185.148 111.42L182.574 120.412C182.574 120.412 179.715 128.22 175.638 138.13C171.559 148.04 169.572 149.964 168.177 149.806C166.759 149.65 165.778 147.234 167.588 136.9C169.42 126.565 173.651 111.576 173.651 111.576C173.651 111.576 169.377 110.121 165.038 110.504C160.697 110.884 158.297 112.048 157.577 112.807C156.879 113.5 156.225 115.916 156.159 116.185C156.159 115.893 155.832 113.3 143.792 114.464C131.053 115.693 124.947 129.808 124.838 129.965C124.838 129.965 122.918 134.038 122.047 136.701C120.977 139.988 118.643 148.98 120.104 158.331C121.565 167.684 128.85 174.37 138.819 172.248C148.807 170.099 151.885 161.217 151.885 161.217C151.885 161.217 151.992 162.158 154.478 164.844C156.987 167.504 160.61 169.048 166.497 167.393C172.386 165.76 177.424 157.125 177.424 157.125C177.424 157.125 177.643 158.913 179.367 161.041C181.111 163.188 183.249 164.151 188.287 163.435C193.326 162.718 194.83 161.017 194.83 161.017C194.83 161.017 193.892 160.414 192.214 157.974C190.555 155.558 191.951 147.35 194.786 138.354C197.645 129.341 205.976 115.001 209.685 114.464C213.372 113.926 211.866 119.654 211.561 122.808C211.233 125.986 206.434 137.973 207.002 148.151C207.591 158.308 215.093 164.639 224.082 159.338C233.066 154.036 237.82 145.512 237.82 145.512C237.82 145.512 238.912 150.929 244.865 152.382C250.821 153.812 255.576 149.405 255.576 149.405C255.576 149.405 254.944 148.913 253.766 147.703C252.567 146.474 251.673 144.618 252.502 138.914C253.329 133.208 254.594 127.998 258.762 117.573C262.948 107.149 269.69 100.369 271.433 101.443C273.178 102.495 272.481 106.366 271.433 112.361C270.386 118.356 267.879 126.073 268.031 136.701C268.161 147.348 275.339 149.832 282.077 148.691C288.841 147.548 295.971 137.437 295.971 137.437C295.971 137.437 296.975 139.316 301.62 141.89C306.266 144.441 319.376 147.123 329.693 139.897C340.03 132.672 340.466 122.918 340.62 115.805C340.772 108.669 334.819 104.283 334.819 104.283H334.822Z" fill="#FF0F2C"/>
</svg>
