<svg width="182" height="118" viewBox="0 0 182 118" fill="none" xmlns="http://www.w3.org/2000/svg">
<g clip-path="url(#clip0_3091_2642)">
<path d="M96.0317 97.6618C100.029 94.8096 104.378 92.5082 108.887 90.5295C113.422 88.6142 118.168 87.049 123.235 86.4383L124.182 86.3201L125.148 86.2709C125.788 86.247 126.447 86.1896 127.075 86.1969C128.322 86.2221 129.57 86.2461 130.814 86.3377C133.302 86.5235 135.785 86.8299 138.235 87.3444C140.685 87.8562 143.108 88.5295 145.474 89.4544C146.658 89.9346 147.826 90.4392 148.974 91.1121C149.261 91.2657 149.548 91.4382 149.834 91.6355C150.12 91.826 150.399 92.0019 150.685 92.248C150.967 92.477 151.247 92.6935 151.536 93.0248C151.681 93.1973 151.809 93.2854 151.958 93.5303C152.104 93.7558 152.238 93.9895 152.359 94.2245L152.364 94.2369C152.479 94.4616 152.512 94.7068 152.475 94.9392L151.878 98.6783C151.684 99.9242 151.471 101.169 151.237 102.411C150.794 104.899 150.3 107.382 149.72 109.857C149.583 107.318 149.531 104.785 149.531 102.258C149.517 100.992 149.525 99.729 149.553 98.4681L149.619 94.6824L149.736 95.3976C149.69 95.3762 149.659 95.3553 149.64 95.3244C149.641 95.3005 149.502 95.2162 149.446 95.1631C149.322 95.0424 149.102 94.9097 148.895 94.7809C148.705 94.6452 148.45 94.5309 148.218 94.406C147.992 94.278 147.746 94.1607 147.486 94.0524C146.489 93.5898 145.385 93.2358 144.299 92.8771C142.088 92.212 139.805 91.7048 137.503 91.3059C135.197 90.9182 132.868 90.6477 130.531 90.488C129.364 90.3879 128.193 90.3541 127.022 90.3164C126.44 90.3066 125.89 90.3322 125.322 90.3369L124.476 90.3498L123.619 90.4303C119.045 90.7919 114.41 91.9124 109.819 93.2058C105.21 94.4963 100.644 96.0546 96.0317 97.6626V97.6618ZM50.952 22.0955C53.9367 19.3431 57.4498 17.2193 61.0245 15.2899C64.6369 13.4191 68.3826 11.785 72.2307 10.447C76.0801 9.11725 79.996 7.95779 83.973 7.0714C87.9472 6.17816 91.9632 5.46939 95.9976 4.92198C104.057 3.8952 112.273 3.47533 120.473 4.08695C128.665 4.66903 136.861 6.19956 144.695 9.02394C146.658 9.71131 148.585 10.5172 150.491 11.3707C152.379 12.2712 154.258 13.2004 156.067 14.2764C157.885 15.3288 159.66 16.4759 161.353 17.7513C163.057 19.0054 164.685 20.3848 166.221 21.8704C169.307 24.8228 171.989 28.3084 173.912 32.2773C175.747 36.2179 176.899 40.3947 177.365 44.67C177.851 48.9359 177.545 53.2647 176.569 57.3932C175.605 61.5239 173.976 65.4765 171.727 69.0049C170.614 70.7747 169.356 72.4435 167.971 73.9856C166.591 75.5392 165.057 76.923 163.523 78.2391C160.442 80.8781 157.247 83.34 153.99 85.7175C156.912 82.9334 159.815 80.1295 162.596 77.241C165.399 74.3673 167.791 71.2434 169.554 67.7333C171.308 64.2426 172.575 60.5219 173.17 56.7012C173.473 54.7931 173.623 52.8684 173.616 50.9505C173.622 49.0318 173.48 47.1191 173.173 45.2359C172.568 41.4789 171.334 37.8036 169.575 34.4994C167.852 31.2441 165.408 28.3307 162.612 25.7926C156.991 20.7084 150.064 17.0443 142.793 14.4852C139.147 13.2059 135.399 12.1912 131.594 11.4002C127.785 10.6302 123.921 10.0867 120.031 9.73229C112.245 9.03379 104.376 9.2037 96.4955 9.80291C92.559 10.0815 88.6323 10.5172 84.7331 11.134C80.8387 11.7614 76.9435 12.4599 73.1098 13.4396C71.1945 13.9318 69.2823 14.448 67.3828 15.0151C65.4881 15.5959 63.6092 16.2371 61.7514 16.9411C59.8855 17.6289 58.0434 18.3903 56.239 19.2421C54.4296 20.0869 52.6437 20.9986 50.952 22.0951V22.0955ZM16.9661 58.6336C16.2087 60.2617 15.5506 61.9241 14.9956 63.6155C14.4214 65.2989 13.9446 67.0083 13.5823 68.7306C12.8523 72.1653 12.5232 75.6749 12.9708 79.0232C13.3668 82.368 14.5741 85.5099 16.5702 88.0232C17.5687 89.2768 18.7005 90.4234 19.9904 91.4005C21.3067 92.3802 22.7363 93.3509 24.1905 94.1509C27.1033 95.7935 30.2061 96.9924 33.4037 97.6981C36.603 98.3988 39.9007 98.5828 43.1884 98.3038C49.7842 97.7893 56.2673 95.4888 62.5483 92.643C68.8042 89.7335 75.1207 86.2435 81.7474 83.3734C88.3535 80.4634 95.3287 78.0259 102.649 76.9953C104.476 76.7415 106.318 76.554 108.171 76.5052C110.008 76.4783 111.837 76.4813 113.65 76.6242C117.279 76.8622 120.872 77.3026 124.397 78.031C127.922 78.7625 131.406 79.6159 134.817 80.7039C138.229 81.7752 141.595 82.9882 144.846 84.4596C137.952 82.7048 130.984 81.4187 124.007 80.7356C120.52 80.3936 117.033 80.2113 113.574 80.2926C111.843 80.2935 110.126 80.4685 108.422 80.5777C106.734 80.7305 105.053 81.0112 103.385 81.3523C96.7047 82.757 90.2706 85.3687 83.9685 88.3489C80.8203 89.8554 77.6919 91.454 74.5514 93.0924C71.4118 94.7364 68.2466 96.3842 64.9251 97.9378C61.5965 99.4628 58.1852 100.804 54.6155 101.874C51.0507 102.927 47.3346 103.647 43.5467 103.859C39.7637 104.042 35.9031 103.743 32.209 102.739C28.5126 101.762 24.9901 100.177 21.8442 98.0919C20.2454 97.0651 18.7885 95.9373 17.3271 94.691C15.8671 93.407 14.5274 91.939 13.4561 90.2796C11.28 86.969 10.2034 83.0361 10.1046 79.2359C10.0476 75.4168 10.7982 71.7244 12.0208 68.2765C13.2595 64.8328 14.8933 61.5688 16.9661 58.6336Z" fill="#DAAA42"/>
<path fill-rule="evenodd" clip-rule="evenodd" d="M32.1505 51.2149C32.1505 51.2149 27.4225 49.1489 28.8479 43.7672C30.2734 38.386 36.5055 33.0201 45.5634 31.3548C54.6231 29.689 66.5948 30.4572 69.7622 30.0087C72.9297 29.561 74.2671 29.1604 75.5745 28.2235C76.881 27.2857 76.8568 26.6369 76.8568 26.6369C76.8568 26.6369 78.0447 27.1659 78.6149 29.4964C79.1856 31.8268 78.1161 33.9647 76.2866 35.0946C74.4575 36.2233 71.251 36.7762 67.1645 36.944C63.0789 37.1122 60.1337 36.9684 60.1337 36.9684C60.1337 36.9684 53.8625 50.4757 51.3277 59.7501C48.7942 69.0249 48.826 73.0935 49.3329 75.976C49.8398 78.8591 51.2015 80.973 53.9577 80.5569C54.21 82.0943 51.0906 83.7601 48.8103 83.7284C46.5291 83.6959 42.3169 82.0626 41.8891 77.1607C41.4621 72.2606 41.6996 67.1678 44.0432 58.7747C46.3872 50.3824 49.2373 43.1423 50.4414 40.4515C51.6451 37.7607 51.835 37.3759 51.835 37.3759C51.835 37.3759 45.8804 37.6322 41.0338 40.9963C36.1885 44.36 34.3514 47.6595 33.5589 48.8442C32.767 50.0293 32.1501 51.2149 32.1501 51.2149H32.1505ZM148.9 55.8942C148.632 56.5666 148.245 57.1786 147.749 57.7312C147.352 58.2123 146.806 58.6343 146.121 58.9955C145.446 59.3568 144.622 59.4779 143.67 59.3469L143.431 59.3366H143.193L142.786 59.2365L142.459 59.1256L142.112 58.9347L141.555 58.5735L141.139 58.1224C140.742 57.5497 140.533 57.129 140.494 56.8671C140.375 56.4061 140.315 55.9139 140.325 55.3823C140.325 54.8602 140.355 54.3782 140.395 53.9472C140.474 53.405 140.563 52.8931 140.653 52.4111C140.961 50.8755 141.377 49.49 141.914 48.2561C142.439 47.0217 143.015 45.9975 143.64 45.1942C144.255 44.3921 144.88 43.8092 145.505 43.4578C146.141 43.0965 146.747 43.0165 147.352 43.1864C147.739 43.3478 147.996 43.6992 148.127 44.2312C148.255 44.7623 148.315 45.3748 148.304 46.0673C147.163 46.1285 146.112 46.5197 145.14 47.2422C144.166 47.9548 143.531 48.9186 143.233 50.1329C143.024 50.9059 142.915 51.5984 142.895 52.2408C142.875 52.8229 142.965 53.3746 143.174 53.9066C143.382 54.4296 143.789 54.8606 144.414 55.1919C144.393 54.3487 144.503 53.6164 144.732 53.0035C144.92 52.4518 145.238 51.9793 145.714 51.5984C146.181 51.2072 146.865 51.0865 147.779 51.217C148.255 51.3069 148.632 51.5483 148.9 51.9296C149.149 52.2708 149.327 52.7428 149.407 53.3647C149.496 53.9875 149.327 54.8306 148.9 55.8946V55.8942ZM68.761 61.3945L68.5922 62.8094L68.5626 63.0602L68.5715 63.1407C68.2842 64.9473 67.9174 66.4231 67.4604 67.5662C67.0047 68.7112 66.527 69.6142 66.0214 70.2768C65.5056 70.9398 64.9991 71.4003 64.4734 71.6524C63.9472 71.9139 63.4403 72.0234 62.9447 72.0038C62.1899 72.0234 61.6638 71.7123 61.3661 71.0502C61.0689 70.3971 60.9005 69.6853 60.8803 68.9217C60.8309 67.9985 60.8902 66.9448 61.0689 65.7703C61.3365 64.1944 61.7338 62.7594 62.2393 61.4642C62.7565 60.1699 63.3124 59.1051 63.9266 58.2521C64.5327 57.4098 65.1581 56.7969 65.8032 56.4155C66.4381 56.0243 67.0639 55.9135 67.6893 56.0842C68.0256 56.1853 68.2842 56.4155 68.4526 56.7669C68.6218 57.1183 68.7404 57.5703 68.8104 58.1023C68.8692 58.6339 68.8988 59.1958 68.8903 59.7676C68.8795 60.3394 68.8302 60.8821 68.761 61.3945ZM152.345 46.7898C152.345 46.7898 152.771 46.5595 153.376 45.8768C154.18 44.9635 154.645 42.3938 152.82 39.955C151.074 37.1948 146.022 37.7067 143.412 38.6706C140.802 39.634 137.565 42.1836 135.243 46.9807C132.911 51.7888 133.269 55.2514 133.269 55.2514C133.269 55.2514 132.851 55.9242 131.711 57.5198C130.569 59.1256 129.527 58.4537 129.586 56.8482C129.645 55.2514 131.135 51.5684 131.453 46.7003C131.77 41.8327 128.257 40.7986 125.121 40.8988C121.985 40.9989 119.355 44.5526 119.355 44.5526C119.355 44.5526 119.355 43.4877 120.754 39.8446C122.144 36.1907 125.856 26.5162 125.856 26.5162C125.856 26.5162 124.267 25.4316 121.697 25.4316C119.126 25.4316 117.946 26.6163 117.946 26.6163C117.946 26.6163 114.76 33.431 112.527 40.8786C110.294 48.3259 109.133 54.6286 109.133 54.6286C109.133 54.6286 108.249 56.0149 106.592 58.9253C104.924 61.8357 103.555 64.304 102.622 64.1838C101.699 64.0635 101.958 62.0754 102.86 58.8247C103.764 55.5822 104.687 51.889 102.979 49.3595C101.273 46.8403 97.8289 46.8403 96.0429 47.4027C94.2663 47.9544 91.7557 50.584 91.7557 50.584L92.5293 47.8538C92.5293 47.8538 91.815 47.5829 89.2244 47.7339C86.6343 47.8743 85.9492 48.2557 85.2156 48.5463C84.4703 48.8378 84.2427 49.9921 84.2427 49.9921L83.0718 54.0264C83.0718 54.0264 81.7707 57.5296 79.9156 61.9757C78.0595 66.4222 77.1558 67.2855 76.5209 67.2144C75.8758 67.1447 75.4295 66.0605 76.2529 61.424C77.0866 56.787 79.0118 50.0618 79.0118 50.0618C79.0118 50.0618 77.0669 49.4091 75.0928 49.5808C73.1173 49.7515 72.0254 50.2737 71.6981 50.614C71.3803 50.9251 71.0826 52.0092 71.053 52.1299C71.053 51.999 70.9039 50.8352 65.4256 51.3574C59.6295 51.9091 56.8513 58.2418 56.8019 58.3124C56.8019 58.3124 55.9282 60.14 55.5318 61.3345C55.0451 62.8094 53.9829 66.8438 54.6478 71.0395C55.3127 75.2356 58.627 78.2355 63.1629 77.2836C67.7077 76.3193 69.1081 72.3342 69.1081 72.3342C69.1081 72.3342 69.157 72.7562 70.2879 73.9614C71.4297 75.1551 73.0778 75.8476 75.7564 75.1051C78.4362 74.3723 80.7282 70.4981 80.7282 70.4981C80.7282 70.4981 80.8279 71.3006 81.6122 72.2554C82.406 73.2184 83.3789 73.6507 85.6709 73.3293C87.9637 73.0079 88.648 72.2443 88.648 72.2443C88.648 72.2443 88.2214 71.9738 87.4577 70.879C86.703 69.7953 87.3383 66.1123 88.6282 62.0763C89.9289 58.0325 93.7195 51.5984 95.4071 51.3578C97.0845 51.1164 96.3994 53.6862 96.2606 55.1011C96.1116 56.5272 93.9278 61.9055 94.1864 66.4718C94.4544 71.0292 97.8679 73.8694 101.958 71.491C106.045 69.1122 108.209 65.288 108.209 65.288C108.209 65.288 108.706 67.7182 111.414 68.37C114.124 69.0116 116.288 67.0347 116.288 67.0347C116.288 67.0347 116 66.8138 115.464 66.2711C114.918 65.7194 114.512 64.887 114.889 62.3275C115.265 59.7676 115.841 57.4299 117.737 52.7527C119.642 48.0755 122.709 45.0337 123.503 45.5156C124.296 45.9877 123.979 47.7241 123.503 50.4141C123.026 53.1036 121.885 56.5662 121.954 61.3345C122.014 66.1115 125.28 67.226 128.346 66.7141C131.423 66.2013 134.667 61.665 134.667 61.665C134.667 61.665 135.124 62.5081 137.238 63.6629C139.351 64.8073 145.316 66.0109 150.011 62.7688C154.714 59.5271 154.913 55.1508 154.983 51.9592C155.052 48.7577 152.343 46.7898 152.343 46.7898H152.345Z" fill="white"/>
</g>
<defs>
<clipPath id="clip0_3091_2642">
<rect width="182" height="118" fill="white"/>
</clipPath>
</defs>
</svg>
