<svg width="23" height="23" viewBox="0 0 23 23" fill="none" xmlns="http://www.w3.org/2000/svg">
<path fill-rule="evenodd" clip-rule="evenodd" d="M11.4969 0C6.41575 0 2.29688 4.1188 2.29688 9.19983C2.29688 11.7395 3.32638 14.0393 4.9902 15.7039C6.65485 17.3693 10.577 19.7795 10.8069 22.3101C10.8418 22.6895 11.1166 23 11.4969 23C11.878 23 12.1528 22.6895 12.1876 22.3101C12.4176 19.7795 16.3389 17.3693 18.0035 15.7039C19.6682 14.0393 20.6969 11.7395 20.6969 9.19983C20.6969 4.1188 16.578 0 11.4969 0Z" fill="#FF4433"/>
<path fill-rule="evenodd" clip-rule="evenodd" d="M11.5256 12.4544C13.309 12.4544 14.7543 11.0082 14.7543 9.22565C14.7543 7.44227 13.309 5.99609 11.5256 5.99609C9.74223 5.99609 8.29688 7.44227 8.29688 9.22565C8.29688 11.0082 9.74223 12.4544 11.5256 12.4544Z" fill="white"/>
</svg>
