<svg width="60" height="60" viewBox="0 0 60 60" fill="none" xmlns="http://www.w3.org/2000/svg">
<path d="M42.5 50C45.2614 50 47.5 47.7614 47.5 45C47.5 42.2386 45.2614 40 42.5 40C39.7386 40 37.5 42.2386 37.5 45C37.5 47.7614 39.7386 50 42.5 50Z" stroke="#B80208" stroke-width="4"/>
<path d="M17.5 50C20.2614 50 22.5 47.7614 22.5 45C22.5 42.2386 20.2614 40 17.5 40C14.7386 40 12.5 42.2386 12.5 45C12.5 47.7614 14.7386 50 17.5 50Z" stroke="#B80208" stroke-width="4"/>
<path d="M12.5 44.93C9.7575 44.795 8.05 44.3875 6.83 43.17C5.61 41.9525 5.205 40.2425 5.07 37.5M22.5 45H37.5M47.5 44.93C50.2425 44.795 51.95 44.3875 53.17 43.17C55 41.3375 55 38.3925 55 32.5V27.5H43.25C41.3875 27.5 40.4575 27.5 39.705 27.255C38.9546 27.0112 38.2726 26.5932 37.7147 26.0353C37.1568 25.4774 36.7388 24.7954 36.495 24.045C36.25 23.2925 36.25 22.3625 36.25 20.5C36.25 17.7075 36.25 16.3125 35.8825 15.1825C35.5167 14.0569 34.8898 13.0339 34.0529 12.197C33.2161 11.3602 32.1931 10.7333 31.0675 10.3675C29.9375 10 28.5425 10 25.75 10H5M5 20H20M5 27.5H15" stroke="#B80208" stroke-width="4" stroke-linecap="round" stroke-linejoin="round"/>
<path d="M36.25 15H40.8025C44.4425 15 46.26 15 47.74 15.885C49.2225 16.7675 50.085 18.37 51.81 21.575L55 27.5" stroke="#B80208" stroke-width="4" stroke-linecap="round" stroke-linejoin="round"/>
</svg>
