<svg width="60" height="60" viewBox="0 0 60 60" fill="none" xmlns="http://www.w3.org/2000/svg">
<path d="M15.6736 56C14.3223 56 13.1949 55.5466 12.2915 54.6397C11.388 53.7328 10.9353 52.6011 10.9333 51.2447V44.8994H8V41.955H10.9333V30.9722H8V28.0278H10.9333V17.045H8V14.1006H10.9333V7.7553C10.9333 6.39889 11.386 5.26626 12.2915 4.35741C13.1969 3.44856 14.3243 2.9961 15.6736 3.00003H47.2627C48.612 3.00003 49.7394 3.45347 50.6448 4.36036C51.5502 5.26725 52.0019 6.39889 52 7.7553V51.2447C52 52.5992 51.5483 53.7298 50.6448 54.6367C49.7413 55.5436 48.613 55.998 47.2597 56H15.6736ZM15.6736 53.0556H47.2627C47.7887 53.0556 48.2209 52.8858 48.5592 52.5462C48.8975 52.2066 49.0667 51.7728 49.0667 51.2447V7.7553C49.0667 7.22726 48.8975 6.79345 48.5592 6.45386C48.2209 6.11426 47.7887 5.94447 47.2627 5.94447H15.6707C15.1446 5.94447 14.7124 6.11426 14.3741 6.45386C14.0358 6.79345 13.8667 7.22825 13.8667 7.75825V14.0976H16.8V17.0421H13.8667V28.0278H16.8V30.9722H13.8667V41.955H16.8V44.8994H13.8667V51.2447C13.8667 51.7728 14.0358 52.2066 14.3741 52.5462C14.7124 52.8858 15.1456 53.0556 15.6736 53.0556ZM26.1632 43.3153H28.7592V31.5965C29.9169 31.3275 30.9025 30.7504 31.716 29.8651C32.5276 28.9798 32.9333 27.9503 32.9333 26.7764V15.6847H30.6747V26.5732H28.592V15.6847H26.3333V26.5732H24.2477V15.6847H21.9891V26.7764C21.9891 27.9503 22.3958 28.9798 23.2093 29.8651C24.0209 30.7504 25.0055 31.3275 26.1632 31.5965V43.3153ZM39.8149 43.3153H42.4109V15.7406C40.4163 15.9291 38.7521 16.7879 37.4184 18.317C36.0828 19.8462 35.4149 21.6109 35.4149 23.6111V31.5376H39.8149V43.3153Z" fill="#B20808"/>
</svg>
