<svg width="60" height="60" viewBox="0 0 60 60" fill="none" xmlns="http://www.w3.org/2000/svg">
<path d="M43.7501 55C43.7501 55 42.5001 50 42.5001 42.5C42.5001 28.5 45.8326 11.6675 47.5001 5C49.1676 12.5 52.5001 30 52.5001 40C52.5001 43.05 52.0351 46.565 51.6726 48.845C51.5471 49.5939 51.2449 50.3021 50.791 50.9108C50.3371 51.5195 49.7445 52.0112 49.0626 52.345L43.7501 55ZM43.7501 55H12.6551C10.3601 55 8.37756 53.4325 8.06756 51.1575C7.68579 48.2875 7.4962 45.3953 7.50006 42.5C7.50006 27.5 12.5001 12.5 12.5001 12.5" stroke="#B20808" stroke-width="3" stroke-linecap="round" stroke-linejoin="round"/>
<path d="M15.0544 45.185C15.021 44.3317 15.0035 43.4367 15.0019 42.5C15.0019 38.37 15.2919 33.995 15.7444 29.7075C15.8104 29.0998 16.0991 28.538 16.5547 28.1304C17.0103 27.7229 17.6006 27.4983 18.2119 27.5H33.1769C34.6744 27.5 35.8344 28.8075 35.6819 30.2975C35.2523 34.3512 35.0254 38.4237 35.0019 42.5C35.0019 43.3 35.0152 44.07 35.0419 44.81C35.0573 45.1556 35.003 45.5008 34.8821 45.825C34.7612 46.1491 34.5762 46.4456 34.3382 46.6966C34.1002 46.9477 33.8141 47.1483 33.4968 47.2863C33.1796 47.4243 32.8378 47.497 32.4919 47.5H17.5094C16.8811 47.5053 16.2751 47.2672 15.8184 46.8357C15.3617 46.4041 15.0897 45.8126 15.0594 45.185M14.4519 5.00003H47.5019C47.2619 5.96003 46.9869 7.12753 46.6944 8.47003C46.4509 9.60473 45.8278 10.6225 44.9278 11.3552C44.0278 12.0879 42.9049 12.4917 41.7444 12.5H10.8594C11.2769 10.365 11.6844 8.47003 12.0469 6.90003C12.1737 6.3575 12.4809 5.8741 12.9183 5.52893C13.3557 5.18377 13.8947 4.99729 14.4519 5.00003Z" stroke="#B20808" stroke-width="3" stroke-linecap="round" stroke-linejoin="round"/>
</svg>
