<svg width="60" height="60" viewBox="0 0 60 60" fill="none" xmlns="http://www.w3.org/2000/svg">
<g clip-path="url(#clip0_3101_10728)">
<path d="M5.62505 28.8429V9.80788C5.6212 9.09179 5.82383 8.38976 6.20869 7.78586C6.59355 7.18197 7.14433 6.70181 7.79505 6.40288C14.7955 3.34735 22.3622 1.80453 30.0001 1.87538C37.6379 1.80453 45.2046 3.34735 52.2051 6.40288C52.8558 6.70181 53.4066 7.18197 53.7914 7.78586C54.1763 8.38976 54.3789 9.09179 54.3751 9.80788V28.8429C54.374 34.8592 52.5503 40.7341 49.1443 45.6936C45.7384 50.653 40.9099 54.4643 35.2951 56.6254L32.6926 57.6254C30.9594 58.292 29.0407 58.292 27.3076 57.6254L24.7051 56.6254C19.0902 54.4643 14.2617 50.653 10.8558 45.6936C7.4498 40.7341 5.62615 34.8592 5.62505 28.8429Z" stroke="#B20808" stroke-width="4" stroke-linecap="round" stroke-linejoin="round"/>
<path d="M42.9982 28.125C42.6389 30.6146 41.5717 32.9485 39.9237 34.8489C38.2757 36.7493 36.1164 38.1361 33.7027 38.8442C31.289 39.5523 28.7227 39.5519 26.3092 38.8431C23.8958 38.1343 21.7368 36.7468 20.0894 34.846C18.442 32.9451 17.3755 30.6109 17.0169 28.1212C16.6583 25.6314 17.0227 23.0911 18.0667 20.8026C19.1106 18.5141 20.7903 16.5738 22.9056 15.2126C25.0209 13.8515 27.4828 13.1268 29.9982 13.125" stroke="#B20808" stroke-width="4" stroke-linecap="round" stroke-linejoin="round"/>
<path d="M43.1248 16.4062L31.1598 28.3712C30.8519 28.6784 30.4348 28.8509 29.9998 28.8509C29.5649 28.8509 29.1478 28.6784 28.8398 28.3712L25.0898 24.6088" stroke="#B20808" stroke-width="4" stroke-linecap="round" stroke-linejoin="round"/>
</g>
<defs>
<clipPath id="clip0_3101_10728">
<rect width="60" height="60" fill="white"/>
</clipPath>
</defs>
</svg>
