<svg width="114" height="114" viewBox="0 0 114 114" fill="none" xmlns="http://www.w3.org/2000/svg">
<path d="M88.9895 25.538C87.7407 25.0655 86.3232 25.3693 85.3782 26.2805C85.1082 26.5168 79.1007 32.2543 69.0095 27.1918C62.0907 23.7155 50.1095 21.6568 39.0395 27.1918C24.5607 34.4818 19.4645 52.808 27.4632 68.873C28.7457 71.438 30.2645 73.6655 31.9857 75.6568C31.007 80.3818 30.467 85.5793 30.467 91.2493H37.217C37.217 87.368 37.4532 83.8918 37.9257 80.7193C40.187 82.103 42.617 83.1493 45.2495 83.7568C47.477 84.2968 49.7045 84.4993 51.8982 84.4993C60.0995 84.4993 67.5582 81.2593 71.2032 78.5255C77.3457 73.9018 82.4082 69.5143 87.4032 58.6468C92.1282 48.2855 91.1832 29.2843 91.1157 28.4743C91.0787 27.8282 90.8548 27.2069 90.4714 26.6856C90.088 26.1644 89.5614 25.7657 88.9557 25.538H88.9895ZM81.2945 55.8455C76.9407 65.3293 72.8907 68.8393 67.187 73.1593C63.4745 75.9605 54.6995 79.0655 46.8357 77.2093C44.0682 76.568 41.6045 75.3193 39.4445 73.5643C45.6882 51.323 63.3732 50.8505 64.2507 50.8505V44.1005C63.677 44.1005 52.472 44.2355 43.022 53.6518C39.2757 57.3643 36.4407 62.0218 34.3482 67.4893C34.0445 66.983 33.7745 66.4768 33.5045 65.9368C27.9357 54.7993 29.657 39.5443 42.077 33.2668C45.992 31.3093 50.0757 30.533 53.8557 30.533C58.5807 30.533 62.9007 31.7143 65.972 33.2668C73.937 37.2493 80.282 36.3718 84.467 34.6843C84.3995 40.7593 83.8595 50.2093 81.2607 55.913L81.2945 55.8455Z" fill="#B90208"/>
<circle cx="57" cy="57" r="55.5" stroke="#B90208" stroke-width="3"/>
</svg>
