<svg width="114" height="114" viewBox="0 0 114 114" fill="none" xmlns="http://www.w3.org/2000/svg">
<path d="M86.1566 48.717C86.1566 56.3218 83.1356 63.6151 77.7582 68.9926C72.3808 74.37 65.0874 77.391 57.4826 77.391C49.8778 77.391 42.5844 74.37 37.207 68.9926C31.8296 63.6151 28.8086 56.3218 28.8086 48.717C28.8086 41.1122 31.8296 33.8188 37.207 28.4414C42.5844 23.064 49.8778 20.043 57.4826 20.043C65.0874 20.043 72.3808 23.064 77.7582 28.4414C83.1356 33.8188 86.1566 41.1122 86.1566 48.717Z" stroke="white" stroke-width="4" stroke-linecap="round" stroke-linejoin="round"/>
<path d="M32.6443 62.7824L19.8926 84.8722L33.6684 81.1809L37.3654 94.9567L48.4277 75.7944M82.3551 62.7824L95.1069 84.8722L81.3253 81.1809L77.634 94.9567L66.5717 75.7944M58.6569 33.1479L62.6085 41.0975C62.6943 41.2995 62.8332 41.4744 63.0105 41.6038C63.1877 41.7332 63.3967 41.8121 63.6152 41.8323L72.3922 43.163C72.6433 43.1951 72.8801 43.2982 73.0747 43.4602C73.2693 43.6222 73.4137 43.8364 73.4908 44.0775C73.568 44.3187 73.5747 44.5769 73.5103 44.8218C73.4458 45.0666 73.3128 45.288 73.1269 45.4599L66.6411 51.6159C66.5439 51.7995 66.493 52.0041 66.493 52.2119C66.493 52.4196 66.5439 52.6242 66.6411 52.8078L67.8851 61.5327C67.9391 61.7855 67.9182 62.0486 67.8251 62.2898C67.732 62.531 67.5706 62.7398 67.3607 62.8908C67.1509 63.0418 66.9015 63.1283 66.6433 63.1399C66.385 63.1515 66.1289 63.0875 65.9064 62.9559L58.0956 58.8249C57.8938 58.7339 57.6749 58.6868 57.4534 58.6868C57.232 58.6868 57.0131 58.7339 56.8112 58.8249L49.0005 62.9559C48.7782 63.084 48.5236 63.145 48.2673 63.1317C48.0111 63.1184 47.7642 63.0313 47.5563 62.8809C47.3485 62.7305 47.1885 62.5232 47.0957 62.284C47.0029 62.0448 46.9813 61.7839 47.0334 61.5327L48.5029 52.8078C48.5667 52.6056 48.5789 52.3906 48.5385 52.1825C48.4981 51.9744 48.4063 51.7796 48.2715 51.6159L41.7973 45.4079C41.6233 45.2339 41.501 45.015 41.4439 44.7757C41.3868 44.5363 41.3972 44.2858 41.474 44.052C41.5507 43.8182 41.6907 43.6103 41.8786 43.4513C42.0664 43.2923 42.2946 43.1885 42.5379 43.1514L51.309 41.8786C51.5275 41.8584 51.7365 41.7795 51.9138 41.6501C52.091 41.5207 52.2299 41.3458 52.3157 41.1438L56.2674 33.1942C56.3726 32.9686 56.5389 32.777 56.7476 32.6412C56.9562 32.5054 57.1988 32.4309 57.4477 32.426C57.6966 32.4212 57.9418 32.4863 58.1556 32.6139C58.3693 32.7415 58.543 32.9265 58.6569 33.1479Z" stroke="white" stroke-width="4" stroke-linecap="round" stroke-linejoin="round"/>
<circle cx="57" cy="57" r="55.5" stroke="white" stroke-width="3"/>
</svg>
