<svg width="114" height="114" viewBox="0 0 114 114" fill="none" xmlns="http://www.w3.org/2000/svg">
<path d="M32.2369 86.5456C29.9549 83.9868 28.2194 80.989 27.1367 77.7358C26.0539 74.4827 25.6468 71.0428 25.9402 67.6268C26.3515 53.2299 33.1921 48.9431 38.6893 45.4993L38.6919 45.4994C40.8628 44.3753 42.7736 42.808 44.3006 40.8989C45.1449 39.6214 45.2946 38.2836 45.5345 29.8858C45.5003 28.3185 45.7879 26.7608 46.3795 25.3091C46.9711 23.8573 47.854 22.5423 48.9739 21.4452C51.1313 19.5362 53.9444 18.5374 56.8225 18.6585C62.4674 18.8198 66.2968 22.525 67.2865 28.8334C67.5932 33.1647 67.4563 37.5138 66.8827 41.815L75.2147 42.053C77.7839 42.1291 80.2181 43.2213 81.9829 45.09C83.7478 46.9587 84.6993 49.4512 84.6286 52.0206C84.5979 53.549 84.2379 55.0528 83.5733 56.4295C85.6035 58.2272 86.9099 60.8044 86.8267 63.7167L86.8263 63.7319C86.7975 65.9698 85.9829 68.1264 84.5251 69.8246C85.844 71.5079 86.5363 73.5975 86.4834 75.7352C86.4739 77.0946 86.1686 78.4356 85.5886 79.6651L85.5616 79.7251C84.998 80.9392 84.1665 82.0097 83.1298 82.8564C83.3292 83.4395 83.4703 84.0555 83.5531 84.7044C83.6397 85.3366 83.6688 85.9722 83.6404 86.6112C83.5733 88.9592 82.6733 91.2126 80.8617 92.8422C80.6461 93.0395 80.4193 93.2241 80.1825 93.3951C78.363 94.798 76.0719 95.4438 73.7876 95.1978L63.9349 94.9163C63.8034 94.9125 63.6727 94.9063 63.543 94.8975L54.6695 94.644C44.6751 94.3585 37.1229 91.6434 32.2369 86.5456ZM55.7781 89.6111L56.4157 89.6293C55.9505 88.4138 55.7301 87.1184 55.7674 85.8174C55.8061 84.4638 56.3377 82.4303 57.6187 80.669C56.3483 78.6044 56.0393 76.3013 56.0803 74.8667C56.1237 73.3485 56.7315 71.0413 58.1955 69.0775C57.4315 67.9526 56.9018 66.6852 56.6383 65.3511C54.979 69.9808 52.0816 75.0512 47.0335 79.1714C46.5133 79.5964 45.8456 79.7974 45.1772 79.7301C44.5088 79.6628 43.8945 79.3327 43.4695 78.8125C43.0444 78.2923 42.8435 77.6246 42.9108 76.9562C42.9781 76.2878 43.3081 75.6735 43.8283 75.2485C49.2574 70.8201 51.7584 65.0015 52.894 60.177C53.4591 57.7698 53.6767 55.6489 53.7503 54.1341C53.7869 53.3692 53.7919 52.6031 53.7653 51.8378L53.7657 51.8226C53.7362 51.4136 53.8065 51.0036 53.9705 50.6278C54.1346 50.252 54.3875 49.9217 54.7075 49.6652C55.0274 49.4088 55.4049 49.234 55.8074 49.1557C56.21 49.0775 56.6255 49.0982 57.0182 49.2161C57.2741 48.0586 57.7363 46.7702 58.4767 45.586C59.2273 44.3944 60.308 43.2655 61.7541 42.5497C62.2566 38.2541 62.4309 33.9263 62.281 29.602C61.3745 23.8379 57.8901 23.7485 56.6248 23.7174L56.5337 23.7148C55.0279 23.6566 53.556 24.172 52.4156 25.1571C51.7985 25.8048 51.3189 26.5707 51.0056 27.4086C50.6922 28.2465 50.5517 29.1392 50.5923 30.0328C50.3507 38.4888 50.2778 41.0418 48.5154 43.6985C46.6109 46.2224 44.1795 48.3011 41.3903 49.7902L41.3722 49.8023C36.2229 53.0333 31.3341 56.0995 31.0006 67.7739C30.7238 70.5171 31.0143 73.2878 31.8541 75.9139C32.6939 78.54 34.0651 80.9652 35.8823 83.0387C39.9645 87.288 46.628 89.4662 55.7781 89.6111ZM73.8438 90.1272C75.5872 90.177 76.904 89.731 77.7014 88.8548C78.2245 88.2721 78.5513 87.4711 78.5799 86.4691C78.598 85.8366 78.549 85.3338 78.4616 84.9363C77.5571 85.0932 76.6388 85.157 75.7213 85.1264L65.1728 84.8251C63.7534 84.7845 62.5182 84.4985 61.4603 84.0353C61.3748 84.1835 61.2969 84.3359 61.2269 84.492C61.0084 84.9546 60.8741 85.4524 60.8304 85.9621C60.8006 87.0071 61.1037 88.0084 61.6383 88.7048C62.0876 89.29 62.7556 89.7497 63.809 89.8405L73.8438 90.1272ZM80.2202 72.5733C78.8743 72.9811 77.4699 73.1618 76.0647 73.1079L65.2227 72.7981C64.1094 72.7663 63.0922 72.56 62.1753 72.2122C61.9459 72.5403 61.7509 72.8911 61.5934 73.2592C61.2681 74.0095 61.1503 74.6747 61.1407 75.0112C61.1197 75.7475 61.3113 77.0191 61.9406 78.0374C62.4805 78.9036 63.397 79.7098 65.3199 79.7647L75.8659 80.066C77.1841 80.1036 78.2009 79.8794 78.9707 79.5267C79.8455 79.1189 80.5556 78.4257 80.9843 77.5609C81.2461 76.9961 81.4016 76.3371 81.4229 75.5906C81.4195 74.8258 81.2207 74.0706 80.8447 73.404L80.8183 73.3551C80.6506 73.0802 80.4521 72.8196 80.2227 72.5733M81.1833 65.8067C81.2542 65.6888 81.3176 65.5682 81.3735 65.4449C81.6093 64.9021 81.7487 64.2756 81.7688 63.5722C81.7594 62.6969 81.4981 61.8428 81.0161 61.1121C80.7763 60.7609 80.4825 60.4376 80.1347 60.1424C78.5896 61.0428 76.7332 61.4937 74.6635 61.4345L64.9019 61.1557C63.995 61.1312 63.0998 60.9444 62.2588 60.6041C62.1562 60.7773 62.064 60.9565 61.9827 61.1406C61.7064 61.7228 61.5383 62.3504 61.4866 62.9928C61.4507 64.2503 61.8109 65.4685 62.455 66.3251C63.0527 67.117 63.9554 67.6974 65.3698 67.7378L76.2118 68.0475C77.7805 68.0923 78.9241 67.7705 79.733 67.2922C80.3309 66.9244 80.8291 66.4169 81.1833 65.8067ZM65.3035 46.8344C64.1065 46.8053 63.3541 47.3485 62.7678 48.2814C62.2093 49.2199 61.8838 50.2787 61.8187 51.3689C61.7914 52.3228 62.0987 53.6205 62.7486 54.6292C63.3645 55.5838 64.1205 56.0688 65.0465 56.0952L74.8081 56.3741C76.5539 56.424 77.6533 55.8806 78.3367 55.1834L78.3628 55.1563C78.6966 54.7801 78.9694 54.3538 79.1712 53.893C79.4054 53.3173 79.5487 52.6453 79.5706 51.8786C79.6057 50.6506 79.1515 49.4589 78.308 48.5658C77.4644 47.6726 76.3006 47.1511 75.0726 47.116L65.3035 46.8344Z" fill="#B90208"/>
<circle cx="57" cy="57" r="55.5" stroke="#B90208" stroke-width="3"/>
</svg>
